<svg xmlns="http://www.w3.org/2000/svg" width="24" height="25"><path fill-rule="evenodd" d="M23.727 15.163a.92.92 0 0 0-.923-.226c-.966.298-1.979.449-3.011.449-5.203 0-10.4-4.665-10.4-10.4 0-1.032.151-2.045.45-3.011.1-.326.013-.68-.228-.445C9.374.809 9.21.721 8.694.819 3.576 2.356 0 7.175 0 12.535c0 6.753 5.493 12.246 12.245 12.246 5.362 0 10.179-3.576 11.716-7.941.629-1.082.008-1.437-.234-1.677Zm-11.482 7.772c-5.734 0-10.399-4.666-10.399-10.4 0-3.989 2.331-7.625 5.834-9.34a12.124 12.124 0 0 0-.132 1.791c0 6.753 5.862 12.247 12.246 12.247.603 0 1.203-.045 1.792-.132-1.716 3.503-5.351 5.834-9.341 5.834Z"/></svg>