<?xml version="1.0" encoding="utf-8"?>
<!-- Generator: Adobe Illustrator 24.0.1, SVG Export Plug-In . SVG Version: 6.00 Build 0)  -->
<svg version="1.1" id="Layer_1" xmlns="http://www.w3.org/2000/svg" xmlns:xlink="http://www.w3.org/1999/xlink" x="0px" y="0px"
	 viewBox="0 0 18 18" style="enable-background:new 0 0 18 18;" xml:space="preserve">
<path d="M9,18c-0.3,0-0.6,0-0.8,0c-5-0.5-8.6-4.9-8.1-9.8C0.4,3.8,3.9,0.4,8.2,0c0.3,0,0.7,0.1,0.9,0.5c0.2,0.3,0.2,0.7-0.1,1
	C7.2,3.8,7.7,7.2,10.1,9c1.9,1.4,4.5,1.4,6.4,0c0.3-0.2,0.7-0.2,1-0.1C17.8,9.1,18,9.5,18,9.8c-0.2,2.4-1.4,4.6-3.2,6.1
	C13.1,17.3,11.1,18,9,18z M6.6,2.2C4,3.1,2.1,5.5,1.8,8.3c-0.4,4,2.6,7.5,6.5,7.8c1.9,0.2,3.8-0.4,5.3-1.6c1-0.8,1.7-1.9,2.2-3.1
	c-2.2,0.8-4.8,0.5-6.7-1C6.4,8.5,5.5,5.1,6.6,2.2z"/>
</svg>
