<svg xmlns="http://www.w3.org/2000/svg" width="20" height="20"><path fill-rule="evenodd" d="M19.015 11.008H17.68c-.55 0-1-.45-1-1.001 0-.55.45-1 1-1h1.335a1 1 0 1 1 0 2.001Zm-2.88-5.721a1.003 1.003 0 0 1-.706.295 1.004 1.004 0 0 1-1.001-1.001c0-.267.105-.517.294-.706l.946-.945a.983.983 0 0 1 .706-.295 1 1 0 0 1 .705.295c.19.183.295.439.295.706a1 1 0 0 1-.295.706l-.944.945ZM12.17 15.25a5.663 5.663 0 0 1-6.182-1.228 5.672 5.672 0 0 1-1.229-6.183 5.668 5.668 0 0 1 5.243-3.503 5.681 5.681 0 0 1 5.671 5.671 5.678 5.678 0 0 1-3.503 5.243ZM10.002 3.336a1 1 0 0 1-1-1.001V1c0-.55.45-1 1-1 .551 0 1.001.45 1.001 1v1.335c0 .55-.45 1.001-1.001 1.001ZM4.57 5.582c-.261 0-.517-.106-.706-.295l-.945-.945a.983.983 0 0 1-.295-.706c0-.262.106-.517.295-.706a.984.984 0 0 1 .706-.295c.262 0 .517.106.706.295l.945.945a.984.984 0 0 1 .295.706c0 .261-.106.517-.295.706a.984.984 0 0 1-.706.295Zm-1.234 4.425a1 1 0 0 1-1.001 1.001H1.001C.45 11.008 0 10.558 0 10.007c0-.55.45-1 1.001-1h1.334c.55 0 1.001.45 1.001 1Zm.528 4.721c.189-.189.445-.295.706-.295.262 0 .517.106.706.295a.993.993 0 0 1 0 1.412l-.945.945a.983.983 0 0 1-.706.295c-.262 0-.517-.106-.706-.295a.983.983 0 0 1-.295-.706c0-.261.106-.517.295-.706l.945-.945Zm6.138 1.951c.551 0 .995.445 1.001 1.001v1.334c0 .551-.45 1.001-1.001 1.001-.55 0-1-.45-1-1.001V17.68c0-.55.45-1.001 1-1.001Zm5.427-2.246c.267 0 .517.106.706.295l.944.945c.19.183.295.439.295.706a1 1 0 0 1-.295.706.982.982 0 0 1-.705.295 1 1 0 0 1-.706-.295l-.946-.945a.983.983 0 0 1-.294-.706 1 1 0 0 1 .294-.706.987.987 0 0 1 .707-.295Z"/></svg>